<svg width="25" height="25" viewBox="0 0 25 25" fill="none" xmlns="http://www.w3.org/2000/svg">
<path d="M12.25 2.5C11.2611 2.5 10.2944 2.79324 9.47215 3.34265C8.6499 3.89206 8.00904 4.67295 7.6306 5.58658C7.25216 6.50021 7.15315 7.50555 7.34607 8.47545C7.539 9.44536 8.0152 10.3363 8.71447 11.0355C9.41373 11.7348 10.3046 12.211 11.2745 12.4039C12.2445 12.5969 13.2498 12.4978 14.1634 12.1194C15.077 11.741 15.8579 11.1001 16.4073 10.2779C16.9568 9.45561 17.25 8.48891 17.25 7.5C17.25 6.17392 16.7232 4.90215 15.7855 3.96447C14.8479 3.02678 13.5761 2.5 12.25 2.5ZM12.25 10.5C11.6567 10.5 11.0766 10.3241 10.5833 9.99441C10.0899 9.66476 9.70542 9.19623 9.47836 8.64805C9.2513 8.09987 9.19189 7.49667 9.30764 6.91473C9.4234 6.33279 9.70912 5.79824 10.1287 5.37868C10.5482 4.95912 11.0828 4.6734 11.6647 4.55764C12.2467 4.44189 12.8499 4.5013 13.3981 4.72836C13.9462 4.95542 14.4148 5.33994 14.7444 5.83329C15.0741 6.32664 15.25 6.90666 15.25 7.5C15.25 8.29565 14.9339 9.05871 14.3713 9.62132C13.8087 10.1839 13.0456 10.5 12.25 10.5ZM21.25 21.5V20.5C21.25 18.6435 20.5125 16.863 19.1997 15.5503C17.887 14.2375 16.1065 13.5 14.25 13.5H10.25C8.39348 13.5 6.61301 14.2375 5.30025 15.5503C3.9875 16.863 3.25 18.6435 3.25 20.5V21.5H5.25V20.5C5.25 19.1739 5.77678 17.9021 6.71447 16.9645C7.65215 16.0268 8.92392 15.5 10.25 15.5H14.25C15.5761 15.5 16.8479 16.0268 17.7855 16.9645C18.7232 17.9021 19.25 19.1739 19.25 20.5V21.5H21.25Z" fill="#CDCDCD"/>
</svg>
