<svg width="25" height="25" viewBox="0 0 25 25" fill="none" xmlns="http://www.w3.org/2000/svg">
<path d="M21.25 4.49999H2.25V6.49999H4.55L7.83 15.5C8.03631 16.0835 8.41807 16.589 8.92294 16.9471C9.4278 17.3051 10.0311 17.4983 10.65 17.5H19.25V15.5H10.65C10.4445 15.4999 10.244 15.4365 10.0758 15.3184C9.9076 15.2003 9.77987 15.0333 9.71 14.84L9.25 13.5H18.53C18.964 13.4994 19.3861 13.3576 19.7324 13.096C20.0788 12.8344 20.3306 12.4673 20.45 12.05L22.25 5.76999C22.2906 5.63868 22.3038 5.50039 22.2886 5.36377C22.2734 5.22715 22.2302 5.09512 22.1617 4.97595C22.0932 4.85677 22.0009 4.75299 21.8904 4.6711C21.78 4.58921 21.6539 4.53096 21.52 4.49999C21.4306 4.48543 21.3394 4.48543 21.25 4.49999ZM18.5 11.5H8.5L6.68 6.49999H19.92L18.5 11.5Z" fill="#CDCDCD"/>
<path d="M10.75 21.5C11.5784 21.5 12.25 20.8284 12.25 20C12.25 19.1716 11.5784 18.5 10.75 18.5C9.92157 18.5 9.25 19.1716 9.25 20C9.25 20.8284 9.92157 21.5 10.75 21.5Z" fill="#CDCDCD"/>
<path d="M16.75 21.5C17.5784 21.5 18.25 20.8284 18.25 20C18.25 19.1716 17.5784 18.5 16.75 18.5C15.9216 18.5 15.25 19.1716 15.25 20C15.25 20.8284 15.9216 21.5 16.75 21.5Z" fill="#CDCDCD"/>
</svg>
