<svg width="25" height="25" viewBox="0 0 25 25" fill="none" xmlns="http://www.w3.org/2000/svg">
<path d="M22.1167 5.41608C21.5328 4.70951 20.7994 4.14126 19.9694 3.75226C19.1393 3.36326 18.2334 3.1632 17.3167 3.16648C15.7484 3.11899 14.2214 3.67441 13.0501 4.71848C11.8787 3.67441 10.3518 3.11899 8.78341 3.16648C7.86677 3.1632 6.9608 3.36326 6.13079 3.75226C5.30077 4.14126 4.56737 4.70951 3.98341 5.41608C2.96687 6.64915 1.90341 8.88168 2.60847 12.5201C3.73381 18.3302 12.1722 23.0982 12.5285 23.2934C12.6873 23.382 12.8661 23.4284 13.0479 23.4284C13.2298 23.4284 13.4086 23.382 13.5674 23.2934C13.9258 23.0939 22.3642 18.3259 23.4874 12.5201C24.1967 8.88168 23.1333 6.64915 22.1167 5.41608ZM21.3978 12.1147C20.6021 16.2225 14.8186 20.0433 13.0501 21.1291C10.5583 19.6251 5.43194 15.8491 4.70767 12.1147C4.16047 9.29235 4.90927 7.65288 5.63461 6.77395C6.01819 6.31113 6.49944 5.93894 7.04384 5.68408C7.58824 5.42921 8.1823 5.29798 8.78341 5.29981C9.42543 5.25166 10.069 5.3707 10.6513 5.64531C11.2336 5.91992 11.7348 6.34075 12.1061 6.86674C12.1976 7.03521 12.3327 7.17604 12.4972 7.27455C12.6617 7.37307 12.8496 7.42566 13.0413 7.42686C13.233 7.42806 13.4215 7.37781 13.5873 7.28136C13.753 7.18491 13.8898 7.04578 13.9834 6.87848C14.3539 6.34838 14.8562 5.924 15.4408 5.64717C16.0253 5.37034 16.6719 5.25062 17.3167 5.29981C17.9191 5.29688 18.5146 5.42757 19.0604 5.68248C19.6062 5.93738 20.0886 6.31015 20.473 6.77395C21.1962 7.65288 21.945 9.29235 21.3978 12.1147Z" fill="#CFCFCF"/>
</svg>
