<svg width="25" height="25" viewBox="0 0 25 25" fill="none" xmlns="http://www.w3.org/2000/svg">
<path d="M16.25 12.5H18.25V16.5H16.25V12.5Z" fill="#CDCDCD"/>
<path d="M20.25 7.5V5.5C20.25 4.397 19.353 3.5 18.25 3.5H5.25C3.596 3.5 2.25 4.846 2.25 6.5V18.5C2.25 20.701 4.044 21.5 5.25 21.5H20.25C21.353 21.5 22.25 20.603 22.25 19.5V9.5C22.25 8.397 21.353 7.5 20.25 7.5ZM5.25 5.5H18.25V7.5H5.25C4.99252 7.48848 4.74941 7.37809 4.57128 7.19182C4.39315 7.00554 4.29373 6.75774 4.29373 6.5C4.29373 6.24226 4.39315 5.99446 4.57128 5.80818C4.74941 5.62191 4.99252 5.51152 5.25 5.5ZM20.25 19.5H5.262C4.8 19.488 4.25 19.305 4.25 18.5V9.315C4.564 9.428 4.897 9.5 5.25 9.5H20.25V19.5Z" fill="#CDCDCD"/>
</svg>
