<svg width="163" height="100" viewBox="0 0 163 100" fill="none" xmlns="http://www.w3.org/2000/svg">
<path opacity="0.12" d="M31.0642 98.9899C24.7613 100.14 19.2017 99.866 14.363 98.1695C13.4394 97.8452 11.1387 96.7715 10.3248 96.2848C8.162 94.9918 6.53166 93.6307 5.20953 92.0151C1.1405 87.0419 -0.0747209 79.623 1.7354 70.8004C3.28547 63.2471 6.90848 55.3041 14.0261 43.8487C15.075 42.1627 18.2228 37.2146 18.2516 37.2083C18.2623 37.206 18.1318 37.5995 17.9629 38.0807C16.503 42.2373 15.6367 46.9485 15.6141 50.8697C15.5756 57.1621 17.4835 62.1418 21.2219 65.5142C23.7995 67.837 27.4625 69.5394 31.14 70.1226C37.5778 71.1429 45.9713 69.5256 55.5182 65.4296C56.1753 65.1468 88.4196 50.1888 127.173 32.1892C165.925 14.1886 197.64 -0.534437 197.647 -0.529557C197.661 -0.524317 111.821 53.9763 67.2559 82.2575C60.1981 86.7355 58.2971 87.8922 54.9023 89.7661C46.2245 94.557 38.074 97.711 31.0642 98.9899Z" fill="#7C7A7A"/>
</svg>
